<?xml version="1.0" encoding="UTF-8" standalone="no"?>
<!-- Generator: Adobe Illustrator 19.0.0, SVG Export Plug-In . SVG Version: 6.00 Build 0)  -->

<svg
   xmlns:dc="http://purl.org/dc/elements/1.1/"
   xmlns:cc="http://creativecommons.org/ns#"
   xmlns:rdf="http://www.w3.org/1999/02/22-rdf-syntax-ns#"
   xmlns:svg="http://www.w3.org/2000/svg"
   xmlns="http://www.w3.org/2000/svg"
   xmlns:sodipodi="http://sodipodi.sourceforge.net/DTD/sodipodi-0.dtd"
   xmlns:inkscape="http://www.inkscape.org/namespaces/inkscape"
   version="1.1"
   id="Capa_1"
   x="0px"
   y="0px"
   viewBox="0 0 468.293 468.293"
   xml:space="preserve"
   inkscape:version="0.92.2 2405546, 2018-03-11"
   sodipodi:docname="icon.svg"
   style="enable-background:new 0 0 468.293 468.293;"
   inkscape:export-filename="/home/kalle/tmp/git/icon_640.png"
   inkscape:export-xdpi="639.94574"
   inkscape:export-ydpi="639.94574"><metadata
     id="metadata47"><rdf:RDF><cc:Work
         rdf:about=""><dc:format>image/svg+xml</dc:format><dc:type
           rdf:resource="http://purl.org/dc/dcmitype/StillImage" /><dc:title></dc:title></cc:Work></rdf:RDF></metadata><defs
     id="defs45" /><sodipodi:namedview
     pagecolor="#ffffff"
     bordercolor="#666666"
     borderopacity="1"
     objecttolerance="10"
     gridtolerance="10"
     guidetolerance="10"
     inkscape:pageopacity="0"
     inkscape:pageshadow="2"
     inkscape:window-width="1364"
     inkscape:window-height="766"
     id="namedview43"
     showgrid="false"
     inkscape:zoom="0.9382687"
     inkscape:cx="151.45559"
     inkscape:cy="165.92501"
     inkscape:window-x="0"
     inkscape:window-y="0"
     inkscape:window-maximized="0"
     inkscape:current-layer="layer2"
     showguides="true"
     inkscape:guide-bbox="true"
     inkscape:snap-bbox="true"
     inkscape:bbox-paths="true"
     inkscape:bbox-nodes="true"
     inkscape:snap-bbox-edge-midpoints="true"
     inkscape:snap-bbox-midpoints="true"
     inkscape:object-paths="true"
     inkscape:snap-intersection-paths="true"
     inkscape:object-nodes="true"
     inkscape:snap-smooth-nodes="true"
     inkscape:snap-midpoints="true"
     inkscape:snap-object-midpoints="true"
     inkscape:snap-center="true" /><g
     inkscape:groupmode="layer"
     id="layer2"
     inkscape:label="mirror"><path
       style="fill:#ffffff;stroke:#000000;stroke-width:5;stroke-miterlimit:4;stroke-dasharray:none;stroke-opacity:1;fill-opacity:1"
       d="m 187.0954,157.77232 c 16.01232,1.7831 25.88662,18.48096 21.37212,33.94408 -1.34834,4.61852 -2.92452,10.5645 -4.10518,16.59332 h 59.56832 c -1.18066,-6.02882 -2.75684,-11.9748 -4.10518,-16.59332 -4.51548,-15.46312 5.3598,-32.16098 21.37212,-33.94408 1.08892,-0.12132 2.19856,-0.18344 3.323,-0.18344 h 17.59145 c 10.62787,0 20.30095,-5.65998 24.83615,-14.53014 l 12.06398,-23.60248 C 342.83723,111.97176 336.92114,103.36 327.95428,103.36 H 140.33774 c -8.96686,0 -14.88296,8.61176 -11.05792,16.09626 l 12.06398,23.60248 c 4.53424,8.87016 14.2083,14.53014 24.83616,14.53014 h 17.59146 c 1.12542,0 2.23407,0.0622 3.32398,0.18344 z"
       id="path3"
       inkscape:connector-curvature="0" /><path
       style="fill:#ffffff;fill-opacity:1;stroke:#000000;stroke-width:5;stroke-miterlimit:4;stroke-dasharray:none;stroke-opacity:1"
       d="m 465.09562,301.0223 c 0,33.28922 -26.96568,60.2508 -60.25776,60.30996 H 63.51432 c -16.61596,0 -31.754376,-6.74088 -42.63573,-17.67916 C 9.9390433,332.773 3.1973783,317.63634 3.1973783,301.0223 c 0,-60.07328 48.7264067,-108.73488 108.7474417,-108.73488 H 356.3462 c 30.0411,0 57.24251,12.17994 76.9339,31.81086 19.63318,19.68812 31.81552,46.8864 31.81552,76.92402 z"
       id="path5"
       inkscape:connector-curvature="0" /></g><g
     id="g13" /><g
     id="g15" /><g
     id="g17" /><g
     id="g19" /><g
     id="g21" /><g
     id="g23" /><g
     id="g25" /><g
     id="g27" /><g
     id="g29" /><g
     id="g31" /><g
     id="g33" /><g
     id="g35" /><g
     id="g37" /><g
     id="g39" /><g
     id="g41" /><g
     inkscape:groupmode="layer"
     id="layer1"
     inkscape:label="android"
     style="display:inline"><path
       style="color:#000000;clip-rule:nonzero;display:inline;overflow:visible;visibility:visible;opacity:1;isolation:auto;mix-blend-mode:normal;color-interpolation:sRGB;color-interpolation-filters:linearRGB;solid-color:#000000;solid-opacity:1;fill:none;fill-opacity:1;fill-rule:nonzero;stroke:#000000;stroke-width:6;stroke-linecap:round;stroke-linejoin:round;stroke-miterlimit:4;stroke-dasharray:none;stroke-dashoffset:0;stroke-opacity:1;color-rendering:auto;image-rendering:auto;shape-rendering:auto;text-rendering:auto;enable-background:accumulate"
       id="path4260"
       sodipodi:type="arc"
       sodipodi:cx="147.83432"
       sodipodi:cy="-339.60773"
       sodipodi:rx="95.846565"
       sodipodi:ry="95.165749"
       sodipodi:start="0"
       sodipodi:end="3.1424512"
       d="m 243.68089,-339.60773 a 95.846565,95.165749 0 0 1 -47.94704,82.42957 95.846565,95.165749 0 0 1 -95.870314,-0.0409 95.846565,95.165749 0 0 1 -47.875746,-82.47041 l 95.84653,0.0817 z"
       transform="scale(1,-1)" /><path
       style="color:#000000;clip-rule:nonzero;display:inline;overflow:visible;visibility:visible;opacity:1;isolation:auto;mix-blend-mode:normal;color-interpolation:sRGB;color-interpolation-filters:linearRGB;solid-color:#000000;solid-opacity:1;fill:#000000;fill-opacity:1;fill-rule:nonzero;stroke:#000000;stroke-width:6;stroke-linecap:round;stroke-linejoin:miter;stroke-miterlimit:4;stroke-dasharray:none;stroke-dashoffset:0;stroke-opacity:1;color-rendering:auto;image-rendering:auto;shape-rendering:auto;text-rendering:auto;enable-background:accumulate"
       id="path4282"
       sodipodi:type="arc"
       sodipodi:cx="110.78208"
       sodipodi:cy="302.47845"
       sodipodi:rx="6.550046"
       sodipodi:ry="6.5492887"
       sodipodi:start="2.4680026"
       sodipodi:end="2.4483113"
       d="m 105.66265,306.56387 a 6.550046,6.5492887 0 0 1 1.00839,-9.18408 6.550046,6.5492887 0 0 1 9.19,0.96305 6.550046,6.5492887 0 0 1 -0.91791,9.19356 6.550046,6.5492887 0 0 1 -9.19904,-0.87253"
       sodipodi:open="true" /><path
       style="color:#000000;clip-rule:nonzero;display:inline;overflow:visible;visibility:visible;opacity:1;isolation:auto;mix-blend-mode:normal;color-interpolation:sRGB;color-interpolation-filters:linearRGB;solid-color:#000000;solid-opacity:1;fill:#000000;fill-opacity:1;fill-rule:nonzero;stroke:#000000;stroke-width:6;stroke-linecap:round;stroke-linejoin:miter;stroke-miterlimit:4;stroke-dasharray:none;stroke-dashoffset:0;stroke-opacity:1;color-rendering:auto;image-rendering:auto;shape-rendering:auto;text-rendering:auto;enable-background:accumulate"
       id="path4282-1"
       sodipodi:type="arc"
       sodipodi:cx="184.88568"
       sodipodi:cy="302.47845"
       sodipodi:rx="6.550046"
       sodipodi:ry="6.5492887"
       sodipodi:start="2.4680026"
       sodipodi:end="2.4483113"
       d="m 179.76625,306.56387 a 6.550046,6.5492887 0 0 1 1.00839,-9.18408 6.550046,6.5492887 0 0 1 9.19,0.96305 6.550046,6.5492887 0 0 1 -0.91791,9.19356 6.550046,6.5492887 0 0 1 -9.19904,-0.87253"
       sodipodi:open="true" /><path
       style="display:inline;fill:none;fill-rule:evenodd;stroke:#000000;stroke-width:6;stroke-linecap:round;stroke-linejoin:miter;stroke-miterlimit:4;stroke-dasharray:none;stroke-opacity:1"
       d="m 184.72096,251.78306 19.64138,-32.5099"
       id="path4308-9"
       inkscape:connector-curvature="0" /><path
       style="display:inline;fill:none;fill-rule:evenodd;stroke:#000000;stroke-width:6;stroke-linecap:round;stroke-linejoin:miter;stroke-miterlimit:4;stroke-dasharray:none;stroke-opacity:1"
       d="M 110.82573,251.8241 91.184329,219.3142"
       id="path4308-9-2"
       inkscape:connector-curvature="0" /></g><g
     inkscape:groupmode="layer"
     id="layer3"
     inkscape:label="effect"
     style="display:inline"><g
       id="g7"
       style="fill:none;stroke:#000000;stroke-width:2.02780604;stroke-miterlimit:4;stroke-dasharray:none;stroke-opacity:1"
       transform="matrix(-0.98634454,0,0,0.98623054,460.53131,-3.1405696)"><path
         style="fill:none;stroke:#000000;stroke-width:2.02780604;stroke-miterlimit:4;stroke-dasharray:none;stroke-opacity:1"
         d="M 56.626,279.131 85.601,250.15 c 3.513,-3.513 3.513,-9.204 0,-12.717 -3.513,-3.513 -9.204,-3.513 -12.717,0 l -28.975,28.981 c -3.513,3.513 -3.513,9.204 0,12.717 1.756,1.756 4.057,2.635 6.358,2.635 2.302,0 4.602,-0.878 6.359,-2.635 z"
         id="path9"
         inkscape:connector-curvature="0" /><path
         style="fill:none;stroke:#000000;stroke-width:2.02780604;stroke-miterlimit:4;stroke-dasharray:none;stroke-opacity:1"
         d="m 117.586,243.891 c -3.513,-3.513 -9.204,-3.513 -12.717,0 l -54.502,54.502 c -3.513,3.513 -3.513,9.204 0,12.717 1.756,1.756 4.057,2.635 6.358,2.635 2.301,0 4.602,-0.878 6.358,-2.635 l 54.502,-54.502 c 3.514,-3.513 3.514,-9.204 0.001,-12.717 z"
         id="path11"
         inkscape:connector-curvature="0" /></g></g></svg>